<svg width="188" height="46" viewBox="0 0 188 46" fill="none" xmlns="http://www.w3.org/2000/svg">
<g clip-path="url(#clip0_63_1043)">
<path d="M181.764 2.55008C181.922 3.9697 183.157 6.3445 184.735 6.20429C186.321 6.05532 188.047 3.55784 187.898 2.13822C187.749 0.7186 186.251 -0.122656 184.664 0.017553C183.078 0.166526 181.606 1.13046 181.764 2.55008Z" fill="#939598"/>
<path d="M10.6209 20.199L3.15471 27.4198V20.199H0V37.103H3.15471V29.8734L10.6209 37.103H15.3179L6.30066 28.6466L15.3179 20.199H10.6209Z" fill="black"/>
<path d="M15.0636 37.1028H18.6039L23.8267 25.9124L29.0407 37.1028H32.581L23.8267 18.9983L15.0636 37.1028Z" fill="black"/>
<path d="M34.0795 18.9371V37.103H37.2342V26.7363L42.5271 32.0292L47.8288 26.7363V37.103H50.9835V18.9371L42.5271 27.3847L34.0795 18.9371Z" fill="black"/>
<path d="M61.5607 34.474C58.4936 34.474 56.0049 31.8626 56.0049 28.6465C56.0049 25.4305 58.5024 22.8279 61.5607 22.8279C64.619 22.8279 67.1165 25.4393 67.1165 28.6465C67.1165 31.8538 64.619 34.474 61.5607 34.474ZM61.5607 19.936C56.7586 19.936 52.8502 23.8444 52.8502 28.6465C52.8502 33.4487 56.7586 37.3658 61.5607 37.3658C66.3629 37.3658 70.2712 33.4575 70.2712 28.6465C70.2712 23.8356 66.3629 19.936 61.5607 19.936Z" fill="black"/>
<path d="M110.021 19.6556H113.561L118.775 8.46516L123.998 19.6556H127.538L118.775 1.55109L110.021 19.6556Z" fill="black"/>
<path d="M129.036 1.48969V19.6556H132.191V9.28883L137.484 14.5817L142.777 9.28883V19.6556H145.94V1.48969L137.484 9.9373L129.036 1.48969Z" fill="black"/>
<path d="M156.517 17.0267C153.45 17.0267 150.962 14.4153 150.962 11.1993C150.962 7.98322 153.459 5.38059 156.517 5.38059C159.576 5.38059 162.073 7.99199 162.073 11.1993C162.073 14.4066 159.576 17.0267 156.517 17.0267ZM156.517 2.48877C151.715 2.48877 147.798 6.39711 147.798 11.1993C147.798 16.0014 151.706 19.9185 156.517 19.9185C161.328 19.9185 165.228 16.0102 165.228 11.1993C165.228 6.38834 161.32 2.48877 156.517 2.48877Z" fill="black"/>
<path d="M174.122 2.48877C169.907 2.48877 166.726 5.89761 166.726 10.4106V19.6557H169.881V10.4106C169.881 7.58889 171.739 5.38059 174.122 5.38059C176.506 5.38059 178.364 7.58889 178.364 10.4106V19.6557H181.519V10.4106C181.519 5.89761 178.338 2.48877 174.122 2.48877Z" fill="black"/>
<path d="M110.336 2.75153H105.639L98.1727 9.97231V2.75153H95.0179V37.2781C95.0179 40.0998 93.1602 42.3081 90.7766 42.3081C88.3931 42.3081 86.5353 40.0998 86.5353 37.2781V37.0941H86.544V27.849C86.544 23.336 83.363 19.9272 79.148 19.9272C74.933 19.9272 71.752 23.336 71.752 27.849V37.0941H74.9067V27.849C74.9067 25.0273 76.7644 22.819 79.148 22.819C81.5316 22.819 83.3893 25.0273 83.3893 27.849V28.033H83.3806V37.2781C83.3806 41.7911 86.5616 45.1999 90.7766 45.1999C94.9917 45.1999 98.1727 41.7911 98.1727 37.2781V19.6555V12.4347L105.639 19.6555H110.336L101.319 11.2079L110.336 2.76029V2.75153Z" fill="black"/>
</g>
<defs>
<clipPath id="clip0_63_1043">
<rect width="187.907" height="45.2" fill="white"/>
</clipPath>
</defs>
</svg>
