<?xml version="1.0" encoding="utf-8"?>
<!-- Generator: Adobe Illustrator 30.2.1, SVG Export Plug-In . SVG Version: 9.03 Build 0)  -->
<svg version="1.0" xmlns="http://www.w3.org/2000/svg" xmlns:xlink="http://www.w3.org/1999/xlink" x="0px" y="0px"
	 viewBox="0 0 402.44 391.25" style="enable-background:new 0 0 402.44 391.25;" xml:space="preserve">
<g id="sea-">
</g>
<g id="monogram">
	<g>
		<path d="M224.84,199.39c0.26,0.32,0.5,0.65,0.75,0.97l7.55-7.33c-10.06-10.95-24.99-20.54-34.3-33.97
			c-5.23-5.67-8.74-12.6-8.74-22.75c0-1.4,0.09-2.76,0.25-4.1c0.02-1.06,0.17-1.94,0.43-2.68c0.15-0.76,0.34-1.5,0.54-2.23
			c-6.6,3.39-11.51,8.94-11.51,16.05C179.81,166.65,209.78,178.36,224.84,199.39z"/>
		<path d="M187.08,221.39l0.01,0.15l-2.22-2.11l-19.98-18.99l-37.12-35.28c-1.16-1.19-2.3-2.2-3.43-3.07v75.08
			c0.45-0.78,0.93-1.55,1.45-2.29c6.18-10.23,17.68-16.51,29.83-16.17c14.88,0.43,28.4,9.17,31.05,23.6
			c1.5,8.13-2.9,11.78-6.72,11.78c-2.74,0-5.19-2.4-6.27-7.62c-0.37-1.8-0.58-3.93-0.58-6.43c0-10.03-3.43-16.11-9.89-18.55
			c-1.61-1.16-3.57-1.41-5.69-1.3c-16.3,0.86-22.75,18.58-22.47,32.25c0.34,16.98,12.79,31.97,22.68,31.97
			c1.42,0,3.15-0.04,5.05-0.33c4.85-0.73,10.89-3.05,16.27-10.27c-0.08,0-0.16,0-0.25,0c-14.88-0.43-28.4-9.17-31.05-23.6
			c-1.5-8.13,2.9-11.78,6.72-11.78c3.69,0,6.85,4.34,6.85,14.05c0,13.43,6.15,19.79,17.48,19.79c12.65,0,27.04-7.6,27.04-19.79
			C205.86,239.8,197.32,230.57,187.08,221.39z"/>
		<path d="M215.75,212.52l-8.23,7.99c3.59,5.61,5.85,12.09,5.85,19.98c0,1.42-0.09,2.8-0.26,4.16c-0.04,0.49-0.11,0.98-0.21,1.48
			c-0.38,2.3-1,4.49-1.82,6.57c7.78-2.94,14.13-8.62,14.77-16.24c0.04-0.42,0.06-0.85,0.06-1.29c0-0.18-0.02-0.35-0.02-0.53
			C225.73,226.05,221.62,219.03,215.75,212.52z"/>
		<path d="M401.15,181.69l-66,5.54l43.49-4.37c1.53-0.26,1.21-2.54-0.33-2.38l-34.3,2.31l42.24-6.62c1.52-0.29,1.16-2.56-0.38-2.37
			l-40.01,5.09l54.68-7.45c1.51-0.34,1.07-2.6-0.45-2.36l-59.59,6.7l56.96-12.13c1.5-0.37,1.03-2.62-0.5-2.35l-65.74,12.36
			l32.65-6.79c1.49-0.42,0.94-2.65-0.58-2.33l-29.97,4.94l36.99-11.37c1.48-0.45,0.89-2.67-0.62-2.32l-48.26,12.98l30.03-10.25
			c1.17-0.4,0.64-2.16-0.56-1.84l-6.77,1.81l8-2.76c1.46-0.53,0.75-2.71-0.74-2.28l-32.83,9.48l55-21.57
			c1.44-0.58,0.65-2.73-0.82-2.26l-32.8,11.72l45.66-20.25c1.43-0.6,0.6-2.75-0.86-2.24l-63.89,26.47l40.16-18.17
			c1.4-0.65,0.51-2.77-0.93-2.21l-22.89,9.36l28.39-14.14c1.27-0.62,0.6-2.42-0.62-2.28l15.29-7.07c1.37-0.72,0.36-2.79-1.05-2.16
			l-56.83,24.56l29.07-17.84L379,111c1.33-0.79,0.22-2.8-1.16-2.1l-15.86,7.51c-0.31-0.22-0.73-0.3-1.19-0.09l-6.65,3.8
			l-35.53,16.83l24.66-16.56l5.49-2.98c0.42-0.28,0.57-0.68,0.54-1.07l19.04-12.78c1.31-0.82,0.17-2.81-1.2-2.08l-29.78,18.9
			l-23.68,11.71l51.23-37.35c1.27-0.89,0.02-2.81-1.31-2.01l-36.33,25.11c-0.24-0.03-0.51,0.02-0.77,0.19l-18.86,9.82l19.68-16.61
			l30.57-20.23c1.19-0.99-0.22-2.8-1.48-1.89l-11.08,6.92l2.31-1.95c1.22-0.95-0.13-2.81-1.41-1.94l-19.81,15.7l-21.31,13.31
			l27.12-24.7c0.59-0.51,0.51-1.21,0.14-1.67l16.37-13.23c1.13-1.05-0.37-2.79-1.57-1.81l-42.39,32.4l42.47-41.38
			c1.11-1.07-0.42-2.78-1.61-1.78l-36.98,34.27l15.91-15.05c0.97-1-0.46-2.49-1.5-1.56l-24.44,21.13l44.8-50.44
			c1.06-1.13-0.57-2.75-1.7-1.7l-50.21,54l12.84-14.7c1.02-1.17-0.66-2.73-1.75-1.64l-7.57,7.57l18.75-23.54l12.6-13.33
			c0.58-0.74,0.15-1.58-0.5-1.86l2.25-2.82c1-1.18-0.71-2.72-1.78-1.61l-15.52,18.45l-24.23,24.2l25.86-35.78
			c0.62-0.82,0.04-1.73-0.71-1.91l0.35-0.44c0.89-1.27-0.94-2.65-1.91-1.45l-28.03,33.36l35.19-55.79c0.87-1.28-0.99-2.63-1.94-1.41
			l-15.48,23.31c-0.44-0.14-0.95-0.05-1.31,0.45l-15.85,20.93l5.86-9.15c0.8-1.33-1.13-2.58-2.01-1.31l-18.33,25.56l31.85-50.72
			c0.75-1.35-1.21-2.54-2.06-1.24l-16.26,24.27l21.83-36.88c0.73-1.37-1.26-2.51-2.08-1.2L262.79,93l25.92-47.24
			c0.68-1.39-1.34-2.47-2.12-1.13l-17.44,29.5l19.07-39.06c0.66-1.4-1.39-2.44-2.14-1.09l-1.16,2.21c-0.54-0.28-1.27-0.2-1.63,0.51
			l-25.45,43.9l22.21-55.15c0.58-1.43-1.52-2.37-2.19-0.98l-0.76,1.75c-0.19,0.12-0.36,0.3-0.47,0.56l-24.56,49.28l19.55-55.74
			c0.51-1.46-1.64-2.29-2.24-0.86l-23.25,61.28l13.83-40.14c0.46-1.48-1.71-2.23-2.27-0.78l-11.42,29.58l12.17-43.93
			c0.43-1.49-1.75-2.2-2.28-0.74l-13.14,42.62l11.43-38.93c0.38-1.5-1.83-2.14-2.31-0.66l-13.59,41.51l13.43-64.08
			c0.35-1.51-1.87-2.1-2.32-0.62l-1.42,6.07c-0.59-0.19-1.32,0.03-1.53,0.83l-15.86,58.45l5.69-41.16l2.88-13.64
			c0.1-0.69-0.31-1.15-0.81-1.31l0.19-1.37c0.27-1.52-1.97-2-2.35-0.5l-2.8,16.99l-10.25,42.88l3.54-48.7
			c0.19-1.54-2.08-1.9-2.37-0.38l-1.14,10.93c-0.18-1.25-2.13-1.4-2.35,0.02l-1.75,12.67l3.13-37.08c0.11-1.54-2.17-1.78-2.39-0.25
			l-7.61,69.13l3.33-76.86c0.06-1.55-2.23-1.71-2.39-0.17l-3.46,51.87l0-28.82c0.03-1.55-2.26-1.67-2.4-0.13l-1.47,45.22l0.62-60.54
			c-0.02-1.55-2.32-1.59-2.4-0.05l-0.85,23.52l-0.09-29.5c-0.05-1.55-2.35-1.55-2.4,0l-1.57,75.49l-4.1-75.4
			c-0.1-1.54-2.4-1.47-2.4,0.08l0.9,29.5l-1.64-23.48c-0.13-1.54-2.43-1.42-2.4,0.13l2.65,60.47l-2.99-45.13
			c-0.18-1.54-2.47-1.34-2.39,0.21l0.97,28.82l-5.2-51.73c-0.21-1.53-2.5-1.29-2.39,0.25l5.91,76.69l-9.93-68.82
			c-0.26-1.53-2.54-1.21-2.38,0.33l4.37,36.97l-2.18-12.62c-0.27-1.38-2.16-1.21-2.36-0.01l-1.49-10.82
			c-0.34-1.51-2.6-1.07-2.36,0.45l5.17,48.57l-11.68-42.5l-3.37-16.91c-0.42-1.49-2.65-0.94-2.33,0.58l0.24,1.37
			c-0.5,0.18-0.89,0.65-0.77,1.33l3.34,13.55l7.07,40.94l-17.81-57.89c-0.24-0.79-0.97-0.98-1.56-0.77l-1.62-6.03
			c-0.5-1.46-2.7-0.8-2.3,0.7l15.58,63.61L145,29.53c-0.53-1.46-2.71-0.75-2.28,0.74l12.68,38.36l-14.51-42
			c-0.58-1.44-2.73-0.65-2.26,0.82l13.65,43.53l-12.41-29.2c-0.6-1.43-2.75-0.6-2.24,0.86l15.14,39.57L127.5,21.82
			c-0.65-1.4-2.77-0.51-2.21,0.93l21.42,55.08l-26.21-48.44c-0.12-0.25-0.29-0.43-0.48-0.54l-0.82-1.73
			c-0.72-1.37-2.79-0.36-2.16,1.05l24.06,54.4l-26.92-43.03c-0.39-0.7-1.12-0.76-1.64-0.46l-1.23-2.18c-0.79-1.33-2.8-0.22-2.1,1.16
			l20.39,38.44l-18.44-28.93c-0.82-1.31-2.81-0.17-2.08,1.2l27.46,46.28l-40.8-60.65c-0.86-1.29-2.81-0.07-2.04,1.27l23.09,36.19
			L99.68,48.1c-0.89-1.27-2.81-0.02-2.01,1.31l33.5,49.56L112.02,74.1c-0.93-1.24-2.81,0.08-1.97,1.37l6.2,9L99.68,64.05
			c-0.38-0.48-0.89-0.56-1.32-0.4L82.09,40.86c-0.99-1.19-2.8,0.22-1.89,1.48l37.06,54.6L88.1,64.51c-1.01-1.17-2.8,0.28-1.87,1.51
			l0.36,0.42c-0.74,0.21-1.29,1.13-0.64,1.93l27.07,34.92L88.01,79.93L71.83,61.97c-1.11-1.08-2.76,0.51-1.73,1.66l2.35,2.75
			c-0.65,0.3-1.05,1.15-0.44,1.88L85.09,81.2l19.52,22.88l-7.85-7.34c-1.13-1.06-2.75,0.57-1.7,1.7l13.22,14.14L56.4,60.42
			c-1.17-1.02-2.73,0.66-1.64,1.75l46.49,48.94L76.09,90.79c-1.07-0.9-2.46,0.64-1.45,1.61l16.01,14.16L52.94,73.89
			c-1.22-0.96-2.7,0.8-1.55,1.84l43.87,39.96L51.78,84.71c-1.24-0.93-2.68,0.85-1.51,1.87l16.8,12.67c-0.36,0.47-0.4,1.17,0.2,1.66
			l27.96,23.8L73.5,112.13L53.13,97.06c-1.31-0.82-2.6,1.08-1.34,1.99l2.41,1.9l-11.35-6.57c-1.28-0.87-2.63,0.99-1.41,1.94
			l31.27,19.22l20.21,15.93l-19.2-9.2c-0.27-0.16-0.53-0.2-0.77-0.17L35.79,98.23c-1.35-0.75-2.54,1.21-1.24,2.06l52.49,35.63
			L63,125.03l-30.45-17.92c-1.39-0.68-2.47,1.34-1.13,2.12l19.45,12.13c-0.02,0.39,0.14,0.78,0.57,1.05l5.64,2.82l25.19,15.71
			l-36.03-15.61l-6.85-3.62c-0.47-0.2-0.89-0.11-1.19,0.13l-16.1-6.97c-1.4-0.66-2.44,1.39-1.09,2.14l28.09,12.98l29.62,16.84
			l-57.66-22.66c-1.43-0.58-2.37,1.52-0.98,2.19l15.5,6.54c-1.21-0.08-1.81,1.73-0.52,2.3L64,148.43l-23.28-8.62
			c-1.46-0.51-2.29,1.64-0.86,2.24l40.55,16.73l-64.54-24.24c-1.48-0.46-2.23,1.71-0.78,2.27l46.4,18.74L28.21,144.9
			c-1.49-0.43-2.2,1.75-0.74,2.28l55.62,19.69l-33.06-8.35c-1.5-0.38-2.14,1.83-0.66,2.31l8.18,2.52l-6.92-1.61
			c-1.21-0.28-1.68,1.49-0.5,1.85l30.25,9.21l-48.57-11.33c-1.52-0.3-2.04,1.94-0.54,2.34l37.4,10.13L38.51,170
			c-1.52-0.27-2,1.97-0.5,2.35l32.49,5.63L4.76,167.89c-1.53-0.22-1.93,2.04-0.42,2.36l57.4,10.22l-59.85-4.7
			c-1.54-0.19-1.9,2.08-0.38,2.37l54.08,5.52l-39.35-3.67c-1.54-0.14-1.82,2.14-0.3,2.38l42.52,5.2l-34.44-1.16
			c-1.54-0.11-1.78,2.17-0.25,2.39l43.17,2.88l-65.7-3.3c-1.55-0.06-1.71,2.23-0.17,2.39l48.57,3.59l-6.63-0.06
			c-1.55-0.03-1.67,2.26-0.13,2.4l33.48,1.99l-52.37-0.15c-1.48,0.02-1.57,2.11-0.21,2.36l-9.76-0.01c-1.55,0.05-1.55,2.35,0,2.4
			l64.12,1.92l-67.99,5c-1.54,0.1-1.47,2.4,0.08,2.4l16.93-0.79c-0.34,0.72,0.03,1.77,1.08,1.75l47.76-1.78l-61.66,5.28
			c-1.54,0.18-1.34,2.47,0.21,2.39l41.89-2.39l-22.91,3.21c-1.53,0.21-1.29,2.5,0.25,2.39l37.67-3.76l-54.45,6.65
			c-1.53,0.26-1.21,2.54,0.33,2.38l44.43-4.12L3.64,235.2c-1.52,0.29-1.16,2.56,0.38,2.37l68.93-11.78l-46.12,8.96
			c-1.51,0.34-1.07,2.6,0.45,2.36l42.53-6.79L21.31,245.9c-1.09,0.27-1.13,1.53-0.49,2.1l-12.27,3.48
			c-1.49,0.42-0.94,2.65,0.58,2.33l47.9-12.35l-50.2,16.85c-1.48,0.45-0.89,2.67,0.62,2.32l72.16-22.38l-54.37,19.02
			c-1.46,0.5-0.8,2.7,0.7,2.3l27.77-8.79l-3.25,1.25c-1.46,0.53-0.75,2.71,0.74,2.28l33.12-10.82l-45.45,18.64
			c-0.51,0.21-0.74,0.61-0.76,1.03l-3.45,1.29c-1.43,0.6-0.6,2.75,0.86,2.24l51.94-17.55L34,274.2c-0.68,0.31-0.82,0.96-0.62,1.49
			l-7.41,3.3c-1.39,0.68-0.46,2.77,0.98,2.19l62.53-25.89l-46.46,23.92c-1.37,0.72-0.36,2.79,1.05,2.16l6.4-3.02
			c-0.33,0.88,0.54,2.03,1.65,1.52l39.97-18.67l-39.55,22.1c-0.57,0.34-0.69,0.9-0.53,1.37l-14.26,7.48
			c-1.31,0.82-0.17,2.81,1.2,2.08l57.09-27.86l-54.1,34.09c-1.29,0.86-0.07,2.81,1.27,2.04l5.53-3.26l-1.6,1.02
			c-1.27,0.89-0.02,2.81,1.31,2.01l50.81-30.25l-56.86,41.15c-1.24,0.93,0.08,2.81,1.37,1.97l35.79-24.51l-20.67,16.42
			c-1.22,0.95,0.13,2.81,1.41,1.94l42.35-31.34l-44.37,37.93c-0.84,0.7-0.37,1.82,0.42,2.08l-10.32,8.71
			c-1.17,1.01,0.28,2.8,1.51,1.87l56.35-45.2l-32.77,29.53c-1.13,1.05,0.37,2.79,1.57,1.81l14.63-12.16l-18.33,17.64
			c-1.11,1.07,0.42,2.78,1.61,1.78l34.94-31.34L95,302.47c-1.08,1.11,0.51,2.76,1.66,1.73l5.27-4.27l-33.87,34.63
			c-1.06,1.13,0.57,2.75,1.7,1.7l45.4-43.84l-30.34,32.93c-1.02,1.17,0.66,2.73,1.75,1.64l16.52-16.57l-2.41,2.86
			c-1,1.18,0.71,2.72,1.78,1.61l17.81-18.49l-45.42,54.34c-0.96,1.22,0.8,2.7,1.84,1.55l2.94-3.34c0.13,0.89,1.34,1.51,2.11,0.62
			l43.66-49.25l-38.16,50.39c-0.89,1.27,0.94,2.65,1.91,1.45l14.59-18.16l-4.06,5.59c-0.87,1.28,0.99,2.63,1.94,1.41l29.08-36.96
			l-25.92,39.23c-0.4,0.64-0.15,1.28,0.32,1.61l-3.25,4.69c-0.8,1.33,1.13,2.58,2.01,1.31l32.41-43.63L96.86,373.6
			c-0.75,1.35,1.21,2.54,2.06,1.24l9.62-15.34c0.5,0.25,1.15,0.18,1.54-0.44L142,310.3l-25.86,52.36c-0.3,0.6-0.08,1.15,0.32,1.46
			l-1.66,3.19c-0.66,1.4,1.39,2.44,2.14,1.09l30.49-54.62l-17.52,38.66c-0.61,1.42,1.47,2.4,2.17,1.02l4.56-9.02l-11.35,26.28
			c-0.58,1.43,1.52,2.37,2.19,0.98l25.88-55.3l-9.04,24.63c-0.28,0.77,0.18,1.36,0.77,1.55l-10.1,24.96
			c-0.51,1.46,1.64,2.29,2.24,0.86l22.23-50.02l-11.79,36.89c-0.39,1.28,1.17,2.01,1.96,1.25l-3.21,10.08
			c-0.43,1.49,1.75,2.2,2.28,0.74l16.81-46.72l-15.4,60.01c-0.38,1.5,1.83,2.14,2.31,0.66l3.8-13.16c0.53,0.66,1.78,0.68,2.11-0.39
			l13.31-45.09l-11.49,54.35c-0.3,1.52,1.94,2.04,2.34,0.54l2.57-10.47c0.62,0.29,1.48,0.1,1.7-0.78l11.31-42.94l-6.41,47.2
			c-0.08,0.54,0.16,0.94,0.51,1.17l-1.06,6.33c-0.19,1.54,2.08,1.9,2.37,0.38l10.89-53.86l-2.4,26.58
			c-0.08,0.87,0.61,1.32,1.28,1.29l-2.8,23.63c-0.11,1.54,2.17,1.78,2.39,0.25l7.89-50.93l-3.04,59.14
			c-0.06,1.55,2.23,1.71,2.39,0.17l1.81-21.95l-0.78,27.28c-0.03,1.55,2.26,1.67,2.4,0.13l3.66-63.68l0.58,47.3
			c0.02,1.55,2.32,1.59,2.4,0.05l0.57-21.92c0.55-0.04,1.08-0.41,1.1-1.14l1.76-25.52l2.62,25.44c0.05,0.73,0.58,1.08,1.14,1.11
			l1.31,21.89c0.13,1.54,2.43,1.42,2.4-0.13l-1.01-47.3l5.79,63.52c0.18,1.54,2.47,1.34,2.39-0.21l-1.7-27.23l2.55,21.87
			c0.21,1.53,2.5,1.29,2.39-0.25l-5.02-59.01l9.6,50.64c0.26,1.53,2.54,1.21,2.38-0.33l-3.59-23.5c0.66,0.01,1.33-0.48,1.23-1.35
			l-3.29-26.5l12.7,53.48c0.34,1.51,2.6,1.07,2.36-0.45l-1.27-6.28c0.34-0.24,0.56-0.64,0.47-1.18l-7.99-46.97l12.75,42.55
			c0.25,0.87,1.12,1.04,1.73,0.73l2.93,10.38c0.45,1.48,2.67,0.89,2.32-0.62l-13.32-53.96l14.82,44.64c0.36,1.06,1.61,1,2.12,0.32
			l4.24,13.03c0.53,1.46,2.71,0.75,2.28-0.74l-17.42-59.48l18.38,46.15c0.58,1.44,2.73,0.65,2.26-0.82l-3.55-9.96
			c0.82,0.72,2.35-0.06,1.91-1.32l-13.03-36.5l23.9,49.27c0.65,1.4,2.77,0.51,2.21-0.93l-10.93-24.6c0.58-0.21,1.02-0.82,0.71-1.58
			l-9.87-24.35l27.74,54.43c0.72,1.37,2.79,0.36,2.16-1.05l-12.2-25.84l4.84,8.82c0.75,1.35,2.79,0.31,2.14-1.09l-18.83-38.09
			l32.33,53.6c0.79,1.33,2.8,0.22,2.1-1.16l-1.76-3.13c0.39-0.33,0.58-0.88,0.27-1.47l-27.62-51.5l33.55,47.68
			c0.41,0.61,1.06,0.65,1.55,0.39l10.14,15.01c0.89,1.27,2.81,0.02,2.01-1.31l-41.67-65.02l33.88,42.55
			c0.93,1.24,2.81-0.08,1.97-1.37l-3.4-4.58c0.46-0.35,0.69-0.99,0.26-1.62l-27.25-38.38l30.33,36c0.99,1.19,2.8-0.22,1.89-1.48
			l-4.18-5.37l15.13,17.59c1.01,1.17,2.8-0.28,1.87-1.51l-39.87-49.13l45.33,47.79c0.8,0.86,1.98,0.2,2.09-0.69l3.05,3.24
			c1.07,1.11,2.78-0.42,1.78-1.61l-47.27-52.84l18.47,17.93c1.11,1.08,2.76-0.51,1.73-1.66l-2.46-2.73l17.02,15.97
			c1.13,1.06,2.75-0.57,1.7-1.7l-31.49-31.96l46.91,42.35c1.17,1.02,2.73-0.66,1.64-1.75l-34.98-33.44l5.38,4.06
			c1.18,1,2.72-0.71,1.61-1.78l-13.43-11.87l36.13,30.28c1.22,0.96,2.7-0.8,1.55-1.84l-18.86-16.97l14.97,11.61
			c1.24,0.93,2.68-0.85,1.51-1.87l-33.82-28.48l57.91,43.34c1.27,0.89,2.65-0.94,1.45-1.91l-10.6-8.35c0.78-0.29,1.2-1.42,0.34-2.09
			l-45.68-36.47l43.45,29.95c1.31,0.82,2.6-1.08,1.34-1.99l-21.14-15.67l36.53,23.25c1.33,0.8,2.58-1.13,1.31-2.01l-58.26-39.26
			l51.85,28.56c1.35,0.75,2.54-1.21,1.24-2.06l-1.48-0.88l5.48,2.99c1.37,0.73,2.51-1.26,1.2-2.08l-55.27-32.28l58.04,25.95
			c1.39,0.68,2.47-1.34,1.13-2.12l-14.5-6.99c0.13-0.48-0.01-1.03-0.58-1.35l-40.35-20.8l40.65,17.35c1.11,0.48,1.95-0.69,1.6-1.56
			l6.5,2.8c1.43,0.58,2.37-1.52,0.98-2.19l-47.31-22.38l63.44,23.8c1.45,0.53,2.32-1.59,0.9-2.22l-7.51-3.05
			c0.17-0.54,0.01-1.18-0.67-1.47l-54.32-23.27l52.55,15.81c1.48,0.46,2.23-1.71,0.78-2.27l-3.49-1.18c-0.03-0.41-0.27-0.81-0.79-1
			L319.9,239.5l33.55,9.73c1.5,0.38,2.14-1.83,0.66-2.31l-3.18-1.1l27.94,7.82c1.51,0.35,2.1-1.87,0.62-2.32l-55.17-17.24
			l73.05,19.99c1.52,0.3,2.04-1.94,0.54-2.34l-50.64-15.13l48.19,10.71c1.52,0.27,2-1.97,0.5-2.35l-12.39-3.07
			c0.63-0.58,0.55-1.85-0.55-2.08l-48.96-13.93l42.69,5.36c1.54,0.19,1.9-2.08,0.38-2.37l-46.71-7.46l69.6,9.5
			c1.54,0.14,1.82-2.14,0.3-2.38l-58.42-9.4l44.47,2.62c1.54,0.11,1.78-2.17,0.25-2.39l-54.97-4.85l38.1,2.52
			c1.55,0.06,1.71-2.23,0.17-2.39l-22.92-2.43l41.86,0.98c1.55,0.03,1.67-2.26,0.13-2.4l-61.96-3.21l47.94,0.18
			c1.05-0.02,1.39-1.07,1.03-1.77l16.95,0.22c1.55-0.05,1.55-2.35,0-2.4l-68.19-2.72l64.09-4.08c1.54-0.1,1.47-2.4-0.08-2.4
			l-9.73,0.34c1.32-0.31,1.16-2.37-0.32-2.34l-52.46,1.91l33.53-3.13c1.54-0.18,1.34-2.47-0.21-2.39l-6.51,0.28l48.31-5.21
			C402.94,183.87,402.7,181.58,401.15,181.69z M282.82,165.08v47.97v34.9h-15.6V164.9v-2.39l-22.02,21.39
			c3.69,5.67,6.03,12.24,6.03,20.26c0,1.42-0.09,2.8-0.26,4.16c-0.04,0.49-0.11,0.98-0.21,1.48c-1.9,11.43-9.5,20.34-19.28,24.71
			c-3.56,9.93-11.66,17.27-21.34,20.37c-5.41,11.29-16.98,18.58-29.49,18.91c-4.23,6.62-10.6,9.93-16.78,11.3
			c-2.54,0.56-5.04,0.81-7.36,0.81h-0.12c-9.89,0-18.84-3.61-25.37-9.46c-6.73-6.03-10.91-14.43-10.91-23.73
			c0-4.15,0.84-8.12,2.36-11.79v-80.17c-6.12-4.05-11.01-3.92-11.01-3.92l0.12-0.98c0,0,7.48,0,21.81,0c11.03,0,19.5,10,19.5,10
			l13.98,13.53l17.05,16.5c7.46,6.36,15.19,12.93,20.83,20.8c0.59,0.74,1.15,1.49,1.68,2.25l8.02-7.79
			c-10.03-10.58-24.39-20.01-33.44-33.06c-5.23-5.67-8.74-12.6-8.74-22.75c0-1.4,0.09-2.76,0.25-4.1c0.02-1.06,0.17-1.94,0.43-2.68
			c2.2-10.89,9.62-19.35,19.07-23.57c4.88-13.61,18.29-22.4,32.61-21.99c14.88,0.43,28.4,9.17,31.05,23.6
			c1.5,8.13-2.9,11.78-6.72,11.78c-3.69,0-6.85-4.34-6.85-14.05c0-13.43-6.15-19.79-17.48-19.79c-12.2,0-26.01,7.07-26.98,18.5
			c2.97-0.75,6.05-1.1,9.19-1.01c14.88,0.43,28.4,9.17,31.05,23.6c1.5,8.13-2.9,11.78-6.72,11.78c-3.69,0-6.85-4.34-6.85-14.05
			c0-13.43-6.15-19.79-17.48-19.79c-3.05,0-6.2,0.45-9.22,1.29c0.45,22.94,30.07,34.64,45.01,55.5c0.52,0.65,1.01,1.31,1.49,1.99
			l24.27-23.59l0.04,0.04c0.85-1.04,2.14-1.98,4.16-2.5c1.08-0.28,2.36-0.45,3.89-0.45c14.34,0,21.81,0,21.81,0l0.12,0.98
			C298.44,156.84,283.99,158.06,282.82,165.08z"/>
		<path d="M226.7,201.88c4.1,5.91,6.73,12.79,6.73,21.31c0,1.42-0.09,2.8-0.26,4.16c-0.04,0.49-0.11,0.98-0.21,1.48
			c-0.19,1.15-0.44,2.27-0.75,3.36c6.6-3.39,11.5-8.93,11.5-16.05c0-8.44-3.79-15.34-9.34-21.73L226.7,201.88z"/>
	</g>
</g>
</svg>
